<?xml version="1.0" encoding="UTF-8" standalone="no"?>
<svg
   xmlns:dc="http://purl.org/dc/elements/1.1/"
   xmlns:cc="http://creativecommons.org/ns#"
   xmlns:rdf="http://www.w3.org/1999/02/22-rdf-syntax-ns#"
   xmlns:svg="http://www.w3.org/2000/svg"
   xmlns="http://www.w3.org/2000/svg"
   xmlns:sodipodi="http://sodipodi.sourceforge.net/DTD/sodipodi-0.dtd"
   xmlns:inkscape="http://www.inkscape.org/namespaces/inkscape"
   width="512"
   height="512"
   viewBox="0 0 135.46666 135.46667"
   version="1.1"
   id="svg8"
   inkscape:version="1.0.2 (1.0.2+r75+1)"
   sodipodi:docname="yale.svg">
  <defs
     id="defs2" />
  <sodipodi:namedview
     id="base"
     pagecolor="#ffffff"
     bordercolor="#666666"
     borderopacity="1.0"
     inkscape:pageopacity="0.0"
     inkscape:pageshadow="2"
     inkscape:zoom="0.35"
     inkscape:cx="-352.85714"
     inkscape:cy="586.12245"
     inkscape:document-units="mm"
     inkscape:current-layer="layer1"
     inkscape:document-rotation="0"
     showgrid="false"
     units="px"
     inkscape:window-width="1848"
     inkscape:window-height="1016"
     inkscape:window-x="72"
     inkscape:window-y="27"
     inkscape:window-maximized="1" />
  <metadata
     id="metadata5">
    <rdf:RDF>
      <cc:Work
         rdf:about="">
        <dc:format>image/svg+xml</dc:format>
        <dc:type
           rdf:resource="http://purl.org/dc/dcmitype/StillImage" />
        <dc:title></dc:title>
      </cc:Work>
    </rdf:RDF>
  </metadata>
  <g
     inkscape:label="Layer 1"
     inkscape:groupmode="layer"
     id="layer1">
    <g
       id="g590"
       transform="matrix(1.2157533,0,0,1.2157533,7.0485677,8.1006374)">
      <path
         d="M 5.5,5.5 H 38.3 V 17.2 H 29.7 L 50.1,48.7 70.5,17.2 H 61.55 V 5.5 h 32.8 v 11.7 h -9.2 l -25.8,38.7 v 23.5 h 14.4 V 92.6 H 26.15 V 79.4 h 14.4 V 55.9 L 14.75,17.2 h -9.2 z"
         fill="none"
         stroke="#00356b"
         stroke-width="9"
         id="path573" />
      <path
         d="M 5.5,5.5 H 38.3 V 17.2 H 29.7 L 50.1,48.7 70.5,17.2 H 61.55 V 5.5 h 32.8 v 11.7 h -9.2 l -25.8,38.7 v 23.5 h 14.4 V 92.6 H 26.15 V 79.4 h 14.4 V 55.9 L 14.75,17.2 h -9.2 z"
         fill="none"
         stroke="#ffffff"
         stroke-width="4.2"
         id="path575" />
      <path
         d="M 5.5,5.5 H 38.3 V 17.2 H 29.7 L 50.1,48.7 70.5,17.2 H 61.55 V 5.5 h 32.8 v 11.7 h -9.2 l -25.8,38.7 v 23.5 h 14.4 V 92.6 H 26.15 V 79.4 h 14.4 V 55.9 L 14.75,17.2 h -9.2 z"
         fill="#00356b"
         id="path577" />
    </g>
  </g>
</svg>
